<svg class="shrink-0 text-black dark:text-white h-8 w-auto xl:h-9" fill="none" height="112" viewBox="0 0 400 112" width="400" xmlns="http://www.w3.org/2000/svg"><path d="M37.3398 0C43.2571 0.000120758 48.932 2.35394 53.1162 6.54395C57.3005 10.734 59.6513 16.4171 59.6514 22.3428C59.6514 35.6654 48.301 47.7609 43.3887 52.3701C47.5423 56.1652 51.2673 60.4058 54.4971 65.0146L65.6289 53.8662C65.7362 53.7595 65.8217 53.6329 65.8799 53.4932C65.938 53.3534 65.9678 53.2033 65.9678 53.0518C65.9678 52.9002 65.938 52.7502 65.8799 52.6104C65.8217 52.4706 65.7362 52.3443 65.6289 52.2373L57.0771 43.6738C56.87 43.4682 56.7444 43.1936 56.7236 42.9023C56.7029 42.6107 56.7887 42.3207 56.9648 42.0879C57.8602 40.8741 58.7116 39.678 59.498 38.4883C59.6099 38.3195 59.7615 38.1813 59.9395 38.085C60.1176 37.9886 60.317 37.9379 60.5195 37.9365C60.837 37.9326 61.1429 38.0553 61.3701 38.2773L73.6934 50.6182C74.3327 51.2614 74.6927 52.131 74.6943 53.0381C74.6943 53.9422 74.3397 54.8099 73.707 55.4551L58.1494 71.0342C60.975 76.4955 62.4052 81.8001 62.4053 86.7979C62.4053 93.4541 59.7645 99.8381 55.0645 104.545C50.3644 109.251 43.9898 111.896 37.3428 111.896C30.6958 111.896 24.3212 109.251 19.6211 104.545C14.921 99.8381 12.2803 93.4541 12.2803 86.7979C12.2803 81.7901 13.717 76.4719 16.5459 71.0176L0.995117 55.4414C0.358042 54.8023 4.71238e-05 53.9362 0 53.0332C0 52.1301 0.357951 51.2632 0.995117 50.624L13.3184 38.2832C13.4435 38.1585 13.5951 38.0628 13.7617 38.0039C13.9284 37.945 14.1064 37.924 14.2822 37.9424C14.4567 37.9615 14.625 38.0188 14.7754 38.1094C14.9258 38.2 15.0547 38.3224 15.1533 38.4678C15.9533 39.6813 16.8077 40.8819 17.6895 42.0684C17.8638 42.2975 17.9494 42.5828 17.9287 42.8701C17.9079 43.1576 17.7825 43.4273 17.5771 43.6289L9.02539 52.2031C8.8076 52.4228 8.68565 52.7199 8.68555 53.0293C8.68555 53.3389 8.80745 53.6367 9.02539 53.8564L20.168 65.0283C23.3727 60.4385 27.0744 56.2167 31.2051 52.4414L31.2861 52.3672C26.3907 47.7817 15.0273 35.6962 15.0273 22.3428C15.0274 16.4171 17.3782 10.734 21.5625 6.54395C25.7468 2.35382 31.4224 0 37.3398 0ZM39.75 89.4365C39.1079 90.0787 38.2369 90.4404 37.3291 90.4404C36.4216 90.4404 35.5513 90.0787 34.9092 89.4365L21.8906 76.4004C20.2702 80.0483 19.4463 83.5429 19.4463 86.7881C19.4463 89.1396 19.909 91.468 20.8076 93.6406C21.7063 95.8131 23.023 97.7881 24.6836 99.4512C26.3441 101.114 28.3158 102.433 30.4854 103.333C32.655 104.233 34.9807 104.695 37.3291 104.695C39.6774 104.695 42.0033 104.233 44.1729 103.333C46.3422 102.433 48.3132 101.114 49.9736 99.4512C51.6345 97.7881 52.9521 95.8131 53.8506 93.6406C54.6931 91.6037 55.1519 89.4299 55.2061 87.2285L55.2119 86.8018C55.2119 83.5463 54.3914 80.0485 52.7744 76.3906L39.75 89.4365ZM37.3291 56.6006C36.1038 57.6539 30.0679 63.0199 25.3428 70.1787L36.5156 81.3535C36.6222 81.4609 36.749 81.5463 36.8887 81.6045C37.0284 81.6627 37.1781 81.6934 37.3291 81.6934C37.4804 81.6934 37.6299 81.6626 37.7695 81.6045C37.9089 81.5463 38.036 81.4609 38.1426 81.3535L49.3262 70.1689C44.6077 63.01 38.5582 57.6539 37.3291 56.6006ZM189.89 37.8164C200.989 37.8166 208.46 45.3591 208.46 56.459C208.46 67.6298 200.989 75.1004 189.89 75.1006C178.79 75.1006 171.318 67.63 171.318 56.459C171.318 45.359 178.79 37.8164 189.89 37.8164ZM246.222 37.8164C256.752 37.8164 264.01 44.5049 264.224 55.1777C264.224 56.1027 264.152 57.0996 264.01 58.0957H236.545V58.5225C236.901 64.7838 240.672 68.8398 246.72 68.8398C251.416 68.8398 254.831 66.4913 255.898 62.4355H263.583C262.302 69.622 256.254 75.1005 247.289 75.1006C235.762 75.1006 228.504 67.7012 228.504 56.5303C228.504 45.2169 235.691 37.8164 246.222 37.8164ZM287.442 37.8164C296.621 37.8164 302.598 43.0107 304.021 51.1934H296.123C295.127 47.0665 291.853 44.3623 287.229 44.3623C281.038 44.3625 276.982 49.2725 276.982 56.3877C276.982 63.574 281.038 68.5545 287.229 68.5547C291.996 68.5547 295.269 65.8511 296.194 61.582H304.021C302.598 69.9069 296.55 75.1006 287.229 75.1006C276.271 75.1004 269.085 67.6298 269.085 56.3877C269.085 45.2166 276.342 37.8164 287.442 37.8164ZM381.998 37.8164C392.529 37.8164 399.786 44.5048 400 55.1777C400 56.1027 399.928 57.0996 399.786 58.0957H372.321V58.5225C372.677 64.7838 376.448 68.8398 382.496 68.8398C387.192 68.8398 390.608 66.4913 391.675 62.4355H399.359C398.079 69.6221 392.031 75.1006 383.065 75.1006C371.539 75.1006 364.281 67.7012 364.281 56.5303C364.281 45.2169 371.467 37.8165 381.998 37.8164ZM317.298 57.5205C317.298 64.6356 320.145 68.4062 325.766 68.4062C331.6 68.4061 335.157 63.8526 335.157 56.3105V38.2373H342.842V74.668H336.083L335.229 70.043C332.952 72.8179 329.607 75.0947 323.986 75.0947C316.231 75.0947 309.613 70.8968 309.613 58.3027V38.2373H317.298V57.5205ZM152.184 37.8164C159.441 37.8164 165.703 41.9433 165.703 54.1104V74.6738H158.019V54.1816C158.019 47.778 155.386 44.4336 150.405 44.4336C145.14 44.4336 141.796 48.4187 141.796 54.9648V74.6738H134.04V54.1816C134.04 47.778 131.407 44.4337 126.355 44.4336C121.09 44.4336 117.816 48.7029 117.816 55.1777V74.6738H110.132V38.2432H116.82L117.675 43.0107C119.738 40.3069 122.869 37.8876 128.348 37.8164C133.186 37.8164 137.455 39.7376 139.59 44.4336C142.009 40.4492 146.136 37.8165 152.184 37.8164ZM222.324 74.6689H214.64V24.8613H222.324V74.6689ZM358.1 74.6689H350.415V24.8613H358.1V74.6689ZM189.89 44.3623C183.415 44.3623 179.216 49.4148 179.216 56.459C179.216 63.5031 183.415 68.5547 189.89 68.5547C196.364 68.5545 200.634 63.5029 200.634 56.459C200.634 49.4149 196.364 44.3625 189.89 44.3623ZM246.506 44.0068C241.596 44.007 237.398 47.2805 236.829 52.4746H256.396C255.756 47.0669 251.842 44.0068 246.506 44.0068ZM382.283 44.0068C377.374 44.0068 373.175 47.2804 372.605 52.4746H392.173C391.533 47.0671 387.62 44.007 382.283 44.0068ZM37.3311 6.56738C33.1558 6.56738 29.1507 8.22803 26.1982 11.1846C23.2458 14.1411 21.5879 18.1518 21.5879 22.333C21.5879 25.2204 22.3267 28.3367 23.7871 31.5615C25.1327 34.4671 26.8012 37.2116 28.7607 39.7432C31.3079 43.0865 34.179 46.1698 37.332 48.9473V48.9609C40.4839 46.1854 43.3554 43.1057 45.9043 39.7666C47.8643 37.2356 49.533 34.4909 50.8779 31.585C52.3352 28.3396 53.0742 25.2272 53.0742 22.333C53.0742 18.1518 51.4152 14.1411 48.4629 11.1846C45.5107 8.22825 41.5062 6.56748 37.3311 6.56738Z" fill="currentColor"></path></svg>