<?xml version="1.0" encoding="UTF-8"?>
<svg id="Layer_2" data-name="Layer 2" xmlns="http://www.w3.org/2000/svg" xmlns:xlink="http://www.w3.org/1999/xlink" viewBox="0 0 636.19 428.76">
  <defs>
    <style>
      .cls-1 {
        fill: url(#_Безымянный_градиент_12);
      }

      .cls-1, .cls-2, .cls-3, .cls-4, .cls-5 {
        stroke-width: 0px;
      }

      .cls-2 {
        fill: #2c81fb;
      }

      .cls-3 {
        fill: #2de1fd;
      }

      .cls-4 {
        fill: url(#_Безымянный_градиент_5);
      }

      .cls-5 {
        fill: url(#_Безымянный_градиент_11);
      }
    </style>
    <linearGradient id="_Безымянный_градиент_11" data-name="Безымянный градиент 11" x1="474.52" y1="195.23" x2="620.09" y2="49.65" gradientUnits="userSpaceOnUse">
      <stop offset=".2" stop-color="#2c82f9"/>
      <stop offset="1" stop-color="#24f8dc"/>
    </linearGradient>
    <linearGradient id="_Безымянный_градиент_12" data-name="Безымянный градиент 12" x1="62.61" y1="214.51" x2="556.55" y2="214.51" gradientUnits="userSpaceOnUse">
      <stop offset=".14" stop-color="#2de1fd"/>
      <stop offset=".89" stop-color="#2c81fb"/>
    </linearGradient>
    <linearGradient id="_Безымянный_градиент_5" data-name="Безымянный градиент 5" x1="158.36" y1="428.76" x2="158.36" y2="10.83" gradientUnits="userSpaceOnUse">
      <stop offset="0" stop-color="#26f9dd"/>
      <stop offset=".8" stop-color="#2de1fd"/>
    </linearGradient>
  </defs>
  <g id="_Слой_1" data-name="Слой 1">
    <g>
      <path class="cls-2" d="m589.26,220.57l-32.72,56.69-11.4,19.77-65.87-91.19c11.14,3.87,23.84,3.29,34.36-2.65.31-.18.62-.36.93-.55,13.09-7.43,20.77-21.35,21.19-35.75l53.51,53.67Z"/>
      <path class="cls-3" d="m125.97,72.79c-.45-.2-.91-.38-1.37-.55h-.08c-3.63-1.46-7.5-2.26-11.35-2.58-5.51-.46-10.74.21-15.53,1.77-14.41,4.7-24.91,17.47-27.62,31.93L28.16,37.52c4.04-4.64,8.47-8.96,13.2-12.9,6.52-5.4,13.63-10.05,21.25-13.79,3.53-1.72,7.16-3.27,10.91-4.58,5.12-1.82,10.44-3.25,15.92-4.26l36.53,70.8Z"/>
      <path class="cls-5" d="m621.17,165.31l-64.62,111.95-42.91-74.07c.31-.18.62-.36.93-.55,19.99-11.33,27.38-37.86,15.55-58.02-10.99-19.02-28.48-49.36-44.46-77.03C468.75,38.32,488.86.96,522.66.04c77.49-2.1,144.44,82.96,98.5,165.27Z"/>
      <path class="cls-1" d="m513.64,203.19c-18.27,10.32-43.13,4.47-54.96-12.8l-.07-.1c-1.68-2.3-11.65-19.85-13.06-22.27l.08-.13-1.01-1.75-.08.14-39-67.52-5.2-9.03-22.91-39.68C357.2,19.22,322.48.31,285.37.31c-.81-.03-1.63-.03-2.44-.03-12.07.06-23.51,2.17-34.13,5.96-11.85,4.22-22.67,10.5-32.14,18.36-7.01,5.8-13.22,12.53-18.66,19.84C177.39,17.04,144.88.29,110.09.29h-2.41c-4.57.03-9.06.35-13.44.94-7.19.97-14.12,2.66-20.72,5.02-3.74,1.32-7.37,2.86-10.91,4.58l35.02,60.6c4.79-1.56,10.02-2.23,15.53-1.77,3.85.32,7.72,1.12,11.35,2.58h.08c8.69,3.22,16.19,9.59,20.79,17.72h.06v.03s1.79,3.11,1.79,3.11l2.12,3.66.42.73,1.89,3.27.57,1.01,5.87,10.13.56.94.56,1.02,6.66,11.52.34.57,4.37,7.58,1.09,1.89,2.44,4.23,3.95,6.85,2.75,4.75.88,1.53,1.61,2.82,2.44,4.23.86,1.47,1.46,2.52.79,1.36,1.26,2.2,1.6,2.78,2.92,5.06,1.54,2.65,2.13,3.67.46.78,1.67,2.89.06.1,3.14,5.45,1.47,2.55,5.78,9.99,4.89,8.48.9,1.56,1.56,2.69.18.31,1.01,1.75.1.17,2.3,3.98,1.65,2.85,3.28,5.68,2.65,4.58c1.74,3,3.46,5.99,5.12,8.9l1.11,1.91c1,1.68,2,3.38,2.96,5.07.64,1.12,1.29,2.26,1.92,3.38l.95,1.67,1.35,2.31c.31.49.59,1,.87,1.5l1.26,2.17c1.26,2.17,2.52,4.33,3.73,6.45.71,1.23,1.44,2.47,2.12,3.7l1.71,2.97,5.8,10.04.06.1c.18.31.36.62.55.91.31.53.6,1.07.9,1.58l3.49,6.06c.85,1.44,1.67,2.85,2.45,4.21l.49.88.08.17,50.41,87.32c.45-.55.88-1.11,1.3-1.67,14.73,19.44,35.96,33.78,59.56,40.01,9.08,2.51,18.39,3.71,27.64,3.71.8,0,1.6-.01,2.4-.03,13.6-.29,27.04-3.18,39.6-8.33,0,0,.01-.01.04-.01,10.19-4.19,19.81-9.9,28.37-16.91,9.56-7.81,17.84-17.26,24.22-28.11.35-.56.69-1.11,1-1.67l1.68-2.89,30.28-52.44,23.72-41.1-42.91-74.07Zm-103.26,155.98c-3.31.36-6.66.36-9.97-.06-11.17-1.26-21.92-8.03-28.33-17.2-1.22-1.72-2.27-3.55-3.14-5.41-.01-.03-.01-.06-.04-.07l-1.14-1.98-3.55-6.11v-.04c-.86-1.44-1.71-2.96-2.62-4.51-2.27-3.9-4.71-8.12-7.3-12.64-.52-.9-1.05-1.79-1.58-2.73-.85-1.49-1.74-3.03-2.64-4.57-.91-1.56-1.82-3.14-2.75-4.75-2.79-4.79-5.68-9.81-8.68-15.01-2.99-5.19-6.08-10.54-9.24-16.02-2.59-4.5-5.23-9.07-7.91-13.68-15.99-27.73-33.04-57.28-47.66-82.59l-3.6-6.25c-2.34-4.02-4.6-7.96-6.77-11.72-3.95-6.83-7.61-13.15-10.86-18.8-.87-1.49-1.7-2.92-2.51-4.32-.29-.5-.59-1.02-.87-1.53-14.7-27.38,7.42-62.18,39.15-59.46,3.9.28,7.74,1.11,11.4,2.51.01.01.04.01.06.01,8.72,3.28,16.22,9.62,20.84,17.72l.04.04c.03.1.11.24.25.46.17.32.48.78.81,1.42l.73,1.25c.78,1.35,1.78,3.1,2.97,5.16l1.44,2.5c1.51,2.64,3.24,5.61,5.09,8.83l1.91,3.29,1.98,3.42,2.03,3.52c.34.59.69,1.19,1.04,1.81l1.93,3.34c.08.17.2.34.28.46l1.98,3.45c2.1,3.66,4.22,7.3,6.25,10.82l2,3.49,1.93,3.35c.95,1.65,1.88,3.24,2.76,4.77.29.5.56,1.01.85,1.5l1.65,2.85,1.5,2.62c3.38,5.83,5.52,9.56,5.52,9.56,2.38,4.12,5.05,8.72,7.93,13.71,1.44,2.48,2.93,5.07,4.47,7.74.38.66.77,1.33,1.15,2,1.57,2.71,3.18,5.48,4.81,8.31,2.87,4.96,5.83,10.11,8.85,15.34.87,1.49,1.74,2.99,2.59,4.5,2.19,3.77,4.39,7.58,6.59,11.4.88,1.51,1.77,3.04,2.64,4.57,1.75,3.04,3.53,6.1,5.26,9.13,1.32,2.27,2.62,4.51,3.91,6.77,1.3,2.23,2.58,4.44,3.85,6.64.42.74.84,1.47,1.26,2.2,1.67,2.92,3.34,5.76,4.95,8.56.81,1.42,1.61,2.79,2.4,4.15,1.96,3.42,3.87,6.73,5.71,9.91.73,1.26,1.46,2.51,2.14,3.71,2.47,4.26,4.75,8.24,6.83,11.83l.53.91c13.85,24.74-2.73,56.98-31.13,59.94Z"/>
      <path class="cls-4" d="m316.73,386.68c-4.84,6.2-10.32,11.83-16.33,16.78-8.62,7.01-18.21,12.73-28.36,16.92h-.08c-12.57,5.16-26.02,8.06-39.56,8.3-.81.08-1.61.08-2.41.08-9.27,0-18.62-1.22-27.64-3.71-26.34-7.01-49.79-23.93-64.45-46.97-1.53-2.17-3.14-5.23-4.51-7.57L14.87,165.3c-21.43-35.61-18.29-77.27.48-109.82,6.77-11.76,15.63-22.23,26.02-30.85,6.52-5.4,13.63-10.05,21.25-13.79l35.02,60.6c-22.81,7.43-35.82,35.11-23.63,57.68.24.57.56,1.05.81,1.54.8,1.44,1.68,2.89,2.5,4.35,3.31,5.64,6.92,12,10.88,18.77,2.17,3.78,4.43,7.74,6.77,11.76l3.62,6.21c14.66,25.37,31.67,54.87,47.7,82.58,2.65,4.67,5.23,9.27,7.89,13.7,3.14,5.48,6.21,10.88,9.18,16.04,3.07,5.24,5.97,10.23,8.71,15.07.97,1.61,1.85,3.14,2.73,4.67.9,1.61,1.78,3.14,2.66,4.6.49.97,1.05,1.85,1.61,2.73,2.58,4.51,4.99,8.79,7.25,12.64.9,1.54,1.78,3.07,2.66,4.51v.08l3.55,6.04,1.12,2.02v.08c.9,1.85,1.93,3.7,3.15,5.4,6.43,9.18,17.16,15.95,28.36,17.24,3.29.39,6.69.39,9.98,0,28.29-2.99,44.9-35.07,31.19-59.79l50.41,87.32Z"/>
    </g>
  </g>
</svg>