<svg width="330" height="331" viewBox="0 0 330 331" fill="none" xmlns="http://www.w3.org/2000/svg">
<g filter="url(#filter0_d_47_28728)">
<path fill-rule="evenodd" clip-rule="evenodd" d="M164.355 95.9796C165.97 95.5273 167.371 95.6544 167.716 96.8331L167.746 96.9503C168.005 98.1509 166.764 99.0804 165.07 99.6256L164.906 99.676C163.219 100.167 161.661 99.8202 161.383 98.8712C161.096 97.8915 162.281 96.6408 164.03 96.078L164.355 95.9796ZM166.178 97.0123C165.787 96.9519 165.168 97.0185 164.38 97.2723C163.668 97.5013 163.13 97.8535 162.825 98.1762C162.691 98.317 162.629 98.4181 162.601 98.4793C162.657 98.5133 162.762 98.5604 162.948 98.5984C163.374 98.6856 164.008 98.661 164.72 98.432C165.509 98.1781 166.057 97.8691 166.347 97.5894C166.484 97.4582 166.526 97.3699 166.538 97.3349C166.545 97.3153 166.553 97.2868 166.532 97.214C166.511 97.1414 166.488 97.123 166.472 97.1107C166.444 97.0887 166.361 97.0407 166.178 97.0123Z" fill="black"/>
<path fill-rule="evenodd" clip-rule="evenodd" d="M165.658 93.3068C167.445 93.3068 169.604 93.7307 171.013 94.7866C171.308 94.6368 171.642 94.5521 171.995 94.5521C173.198 94.5521 174.173 95.5268 174.173 96.7292C174.173 97.8522 173.322 98.7758 172.231 98.893C171.721 100.028 170.603 100.878 169.74 101.972C170.171 102.37 170.44 102.939 170.44 103.572C170.44 104.664 169.636 105.568 168.588 105.725C168.548 107.402 168.362 108.683 168.063 109.635C168.382 110.014 168.574 110.503 168.574 111.036C168.574 112.239 167.599 113.213 166.397 113.213C165.489 113.213 164.712 112.658 164.385 111.868C160.182 111.208 156.955 107.327 156.955 102.637C156.955 102.595 156.955 102.554 156.955 102.512C156.114 102.211 155.511 101.407 155.511 100.461C155.511 99.2591 156.486 98.2843 157.688 98.2843C157.782 98.2843 157.875 98.291 157.965 98.3026C157.96 98.3019 157.955 98.3007 157.95 98.3001C159.407 95.3314 162.312 93.3069 165.658 93.3068ZM166.397 110.103C165.882 110.103 165.464 110.521 165.464 111.036C165.464 111.552 165.882 111.969 166.397 111.969C166.912 111.969 167.33 111.552 167.33 111.036C167.33 110.521 166.912 110.103 166.397 110.103ZM165.658 94.5509C162.862 94.5509 160.365 96.2455 159.091 98.7964C159.565 99.1958 159.866 99.7935 159.866 100.461C159.866 101.488 159.155 102.348 158.199 102.577C158.199 102.597 158.199 102.617 158.199 102.637C158.199 106.653 160.864 109.88 164.268 110.581C164.477 109.597 165.351 108.859 166.397 108.859C166.595 108.859 166.787 108.885 166.97 108.935C167.176 108.136 167.321 107.035 167.348 105.547C166.603 105.201 166.086 104.447 166.086 103.572C166.086 102.369 167.061 101.395 168.263 101.395C168.38 101.395 168.495 101.404 168.607 101.421C168.603 101.421 168.599 101.42 168.595 101.419C169.024 100.838 169.494 100.356 169.888 99.9415C170.371 99.4314 170.729 99.0278 170.959 98.644C170.28 98.2755 169.818 97.5564 169.818 96.7292C169.818 96.3333 169.925 95.9624 170.109 95.6425C170.106 95.6486 170.102 95.6545 170.098 95.6607C169.877 95.5131 169.624 95.375 169.337 95.2488C168.249 94.7703 166.876 94.5509 165.658 94.5509ZM168.263 102.639C167.748 102.639 167.33 103.056 167.33 103.572C167.33 104.087 167.748 104.505 168.263 104.505C168.778 104.505 169.196 104.087 169.196 103.572C169.196 103.056 168.778 102.639 168.263 102.639ZM168.931 101.499C168.926 101.497 168.921 101.495 168.916 101.494L168.911 101.492C168.917 101.494 168.924 101.497 168.931 101.499ZM157.688 99.5284C157.173 99.5284 156.755 99.9462 156.755 100.461C156.755 100.977 157.173 101.395 157.688 101.395C158.204 101.395 158.621 100.977 158.621 100.461C158.621 99.9462 158.204 99.5284 157.688 99.5284ZM171.995 95.7962C171.48 95.7962 171.062 96.2139 171.062 96.7292C171.062 97.2445 171.48 97.6623 171.995 97.6623C172.511 97.6623 172.928 97.2445 172.928 96.7292C172.928 96.2139 172.511 95.7962 171.995 95.7962Z" fill="black"/>
</g>
<path d="M220.189 107.176H222.399V109.385H220.189V107.176Z" fill="#B3B3B3"/>
<path d="M233.274 109.346C232.982 109.518 232.577 109.604 232.059 109.604C231.622 109.604 231.27 109.485 231.004 109.246C230.752 108.994 230.626 108.589 230.626 108.032C230.162 108.589 229.618 108.994 228.994 109.246C228.384 109.485 227.72 109.604 227.003 109.604C226.539 109.604 226.094 109.551 225.67 109.445C225.258 109.339 224.9 109.173 224.595 108.948C224.29 108.722 224.044 108.43 223.858 108.072C223.686 107.7 223.6 107.256 223.6 106.738C223.6 106.154 223.699 105.676 223.898 105.305C224.097 104.933 224.356 104.635 224.675 104.409C225.006 104.17 225.378 103.991 225.789 103.872C226.214 103.752 226.645 103.653 227.083 103.573C227.548 103.48 227.985 103.414 228.397 103.374C228.822 103.321 229.193 103.255 229.512 103.175C229.83 103.082 230.082 102.956 230.268 102.797C230.454 102.624 230.547 102.379 230.547 102.06C230.547 101.689 230.474 101.39 230.328 101.165C230.195 100.939 230.016 100.766 229.79 100.647C229.578 100.528 229.332 100.448 229.054 100.408C228.788 100.368 228.523 100.348 228.258 100.348C227.541 100.348 226.944 100.488 226.466 100.766C225.988 101.032 225.73 101.543 225.69 102.299H223.998C224.024 101.662 224.157 101.125 224.396 100.687C224.635 100.249 224.953 99.8972 225.351 99.6318C225.749 99.3531 226.201 99.1541 226.705 99.0346C227.222 98.9152 227.773 98.8555 228.357 98.8555C228.822 98.8555 229.279 98.8887 229.731 98.955C230.195 99.0214 230.613 99.1607 230.985 99.373C231.356 99.5721 231.655 99.8574 231.88 100.229C232.106 100.601 232.219 101.085 232.219 101.682V106.977C232.219 107.375 232.239 107.667 232.278 107.853C232.332 108.039 232.491 108.131 232.756 108.131C232.902 108.131 233.075 108.098 233.274 108.032V109.346ZM230.527 104.071C230.314 104.23 230.036 104.349 229.691 104.429C229.346 104.495 228.981 104.555 228.596 104.608C228.224 104.648 227.846 104.701 227.461 104.767C227.076 104.82 226.731 104.913 226.426 105.046C226.121 105.179 225.869 105.371 225.67 105.623C225.484 105.862 225.391 106.194 225.391 106.619C225.391 106.897 225.444 107.136 225.55 107.335C225.67 107.521 225.816 107.674 225.988 107.793C226.174 107.912 226.386 107.999 226.625 108.052C226.864 108.105 227.116 108.131 227.382 108.131C227.939 108.131 228.417 108.058 228.815 107.912C229.213 107.753 229.538 107.561 229.79 107.335C230.042 107.096 230.228 106.844 230.348 106.579C230.467 106.3 230.527 106.041 230.527 105.802V104.071Z" fill="#B3B3B3"/>
<path d="M235.446 97.2431H233.754V95.173H235.446V97.2431ZM233.754 99.0943H235.446V109.385H233.754V99.0943Z" fill="#B3B3B3"/>
<path d="M185.081 101.981H188.783C189.858 101.994 190.641 101.775 191.132 101.324C191.636 100.873 191.889 100.222 191.889 99.373C191.889 98.5237 191.636 97.8801 191.132 97.4422C190.641 96.991 189.858 96.7654 188.783 96.7654H185.081V101.981ZM183.19 95.173H189.42C190.854 95.173 191.935 95.5445 192.665 96.2877C193.408 97.0175 193.78 98.046 193.78 99.373C193.78 100.7 193.408 101.735 192.665 102.478C191.935 103.221 190.854 103.586 189.42 103.573H185.081V109.385H183.19V95.173Z" fill="black"/>
<path d="M201.77 103.255C201.744 102.856 201.651 102.478 201.492 102.12C201.346 101.762 201.14 101.456 200.875 101.204C200.623 100.939 200.317 100.733 199.959 100.587C199.614 100.428 199.229 100.348 198.805 100.348C198.367 100.348 197.968 100.428 197.61 100.587C197.265 100.733 196.967 100.939 196.714 101.204C196.462 101.47 196.263 101.782 196.117 102.14C195.971 102.485 195.885 102.856 195.859 103.255H201.77ZM203.403 106.121C203.177 107.275 202.679 108.145 201.91 108.729C201.14 109.312 200.171 109.604 199.004 109.604C198.181 109.604 197.464 109.472 196.854 109.206C196.257 108.941 195.752 108.569 195.341 108.092C194.93 107.614 194.618 107.043 194.405 106.38C194.206 105.716 194.094 104.993 194.067 104.21C194.067 103.427 194.186 102.711 194.425 102.06C194.664 101.41 194.996 100.846 195.421 100.368C195.859 99.8906 196.369 99.519 196.953 99.2536C197.55 98.9882 198.201 98.8555 198.904 98.8555C199.82 98.8555 200.576 99.0479 201.173 99.4327C201.784 99.8043 202.268 100.282 202.626 100.866C202.998 101.45 203.25 102.087 203.383 102.777C203.529 103.467 203.588 104.124 203.562 104.747H195.859C195.845 105.199 195.898 105.63 196.018 106.041C196.137 106.439 196.33 106.798 196.595 107.116C196.86 107.421 197.199 107.667 197.61 107.853C198.022 108.039 198.506 108.131 199.063 108.131C199.78 108.131 200.364 107.966 200.815 107.634C201.279 107.302 201.585 106.798 201.731 106.121H203.403Z" fill="black"/>
<path d="M204.181 99.0943H205.873V100.488H205.913C206.192 99.9171 206.63 99.5057 207.227 99.2536C207.824 98.9882 208.481 98.8555 209.197 98.8555C209.994 98.8555 210.684 99.0015 211.268 99.2934C211.865 99.5853 212.356 99.9835 212.741 100.488C213.139 100.979 213.437 101.549 213.636 102.2C213.835 102.85 213.935 103.54 213.935 104.27C213.935 105 213.835 105.69 213.636 106.34C213.45 106.99 213.159 107.561 212.76 108.052C212.376 108.53 211.885 108.908 211.287 109.186C210.704 109.465 210.02 109.604 209.237 109.604C208.985 109.604 208.7 109.578 208.381 109.525C208.076 109.472 207.771 109.385 207.466 109.266C207.16 109.147 206.868 108.987 206.59 108.788C206.324 108.576 206.099 108.317 205.913 108.012H205.873V113.307H204.181V99.0943ZM212.143 104.15C212.143 103.673 212.077 103.208 211.944 102.757C211.825 102.292 211.632 101.881 211.367 101.523C211.115 101.165 210.783 100.879 210.372 100.667C209.974 100.455 209.503 100.348 208.958 100.348C208.388 100.348 207.903 100.461 207.505 100.687C207.107 100.912 206.782 101.211 206.53 101.583C206.278 101.941 206.092 102.352 205.973 102.817C205.867 103.281 205.813 103.752 205.813 104.23C205.813 104.734 205.873 105.225 205.993 105.703C206.112 106.167 206.298 106.579 206.55 106.937C206.815 107.295 207.154 107.587 207.565 107.813C207.976 108.025 208.474 108.131 209.058 108.131C209.642 108.131 210.126 108.019 210.511 107.793C210.909 107.567 211.228 107.269 211.467 106.897C211.705 106.526 211.878 106.101 211.984 105.623C212.09 105.146 212.143 104.655 212.143 104.15Z" fill="black"/>
<path d="M217.075 99.0943H219.126V100.587H217.075V106.977C217.075 107.176 217.089 107.335 217.115 107.455C217.155 107.574 217.221 107.667 217.314 107.733C217.407 107.8 217.533 107.846 217.692 107.873C217.865 107.886 218.084 107.893 218.349 107.893H219.126V109.385H217.832C217.394 109.385 217.016 109.359 216.697 109.306C216.392 109.239 216.14 109.127 215.941 108.967C215.755 108.808 215.616 108.583 215.523 108.291C215.43 107.999 215.383 107.614 215.383 107.136V100.587H213.632V99.0943H215.383V96.009H217.075V99.0943Z" fill="black"/>
<defs>
<filter id="filter0_d_47_28728" x="-7.62939e-05" y="-1.90735e-05" width="329.684" height="330.929" filterUnits="userSpaceOnUse" color-interpolation-filters="sRGB">
<feFlood flood-opacity="0" result="BackgroundImageFix"/>
<feColorMatrix in="SourceAlpha" type="matrix" values="0 0 0 0 0 0 0 0 0 0 0 0 0 0 0 0 0 0 127 0" result="hardAlpha"/>
<feOffset dy="62.2045"/>
<feGaussianBlur stdDeviation="77.7557"/>
<feComposite in2="hardAlpha" operator="out"/>
<feColorMatrix type="matrix" values="0 0 0 0 0.491657 0 0 0 0 0.680326 0 0 0 0 0.481459 0 0 0 0.15 0"/>
<feBlend mode="normal" in2="BackgroundImageFix" result="effect1_dropShadow_47_28728"/>
<feBlend mode="normal" in="SourceGraphic" in2="effect1_dropShadow_47_28728" result="shape"/>
</filter>
</defs>
</svg>
